<svg version="1.1" id="Layer_1" xmlns="http://www.w3.org/2000/svg" xmlns:xlink="http://www.w3.org/1999/xlink" x="0px" y="0px"
	 width="100%" viewBox="0 0 784 672" enable-background="new 0 0 784 672" xml:space="preserve">
<path fill="#000000" opacity="1.000000" stroke="none" 
	d="
M252.506897,387.499634 
	C264.679413,376.295441 279.449066,370.533966 294.120056,364.613708 
	C309.079407,358.577118 324.569427,353.780701 338.598114,345.580627 
	C341.180756,344.071014 343.665680,342.388885 346.149628,340.717865 
	C347.530579,339.788849 349.115662,338.775909 348.584564,336.777435 
	C348.068085,334.833740 346.247894,334.436188 344.575745,334.458069 
	C339.070679,334.530060 333.624268,333.948944 328.162354,333.390533 
	C318.676575,332.420746 309.477997,330.252319 300.674042,326.652222 
	C280.909973,318.570312 274.745911,300.876251 276.229553,281.972382 
	C277.143890,270.322754 280.050751,259.077606 283.004089,247.805832 
	C286.885742,232.990601 288.067566,217.697159 289.575500,202.524933 
	C291.786377,180.279160 293.857758,158.107895 305.482147,138.229156 
	C308.761536,132.621140 312.087463,127.030624 316.218292,122.014091 
	C318.737122,118.955254 318.899750,115.936943 317.827606,112.287216 
	C315.156830,103.195457 312.790985,94.014359 310.278595,84.875748 
	C308.359344,77.894646 310.076141,72.345451 315.873749,67.653931 
	C335.923706,51.429161 358.544250,41.491039 384.240723,38.577881 
	C405.620300,36.154125 426.712799,37.273155 447.258179,43.905998 
	C463.371216,49.107899 478.556976,56.169117 491.092834,68.030037 
	C494.930298,71.660866 496.446503,75.633240 495.591034,80.950233 
	C493.865631,91.673958 490.046478,101.822258 487.388245,112.284523 
	C486.598846,115.391457 486.917206,117.774673 488.807739,120.123116 
	C504.520813,139.641922 511.436127,162.422134 513.411133,186.971542 
	C514.783203,204.026611 516.714233,221.024185 519.431030,237.898254 
	C520.796143,246.377441 523.886353,254.563873 525.724609,262.985718 
	C528.071289,273.736603 529.645569,284.572327 526.832214,295.570221 
	C522.046753,314.277191 509.308411,324.882965 491.511627,330.105988 
	C481.115448,333.157104 470.472717,335.080109 459.526093,334.394043 
	C457.647675,334.276337 455.589386,334.314148 454.834351,336.376434 
	C454.023163,338.592072 456.019440,339.615356 457.441040,340.675934 
	C469.360321,349.568237 483.230103,354.466034 496.933350,359.601135 
	C510.033722,364.510345 522.895935,369.889435 535.536987,375.900970 
	C550.938232,383.225128 561.293457,395.607452 568.690674,410.105499 
	C583.071228,438.290405 594.545654,467.787842 605.399292,497.506195 
	C607.852356,504.222961 610.806885,510.761078 613.137573,517.517029 
	C616.278564,526.621826 614.713013,529.811218 605.942200,533.100647 
	C602.377075,534.437744 601.125427,536.439514 602.072815,540.373779 
	C605.610962,555.066589 611.041016,569.364258 612.767334,584.415955 
	C615.543518,608.621826 611.834229,628.045471 588.409241,641.295105 
	C578.863220,646.694397 567.783081,647.664001 556.989624,648.249451 
	C533.914917,649.501160 511.263245,645.584961 488.595886,641.970581 
	C480.899414,640.743286 473.215576,640.286682 465.373016,642.058899 
	C451.454102,645.204285 437.377228,645.162964 424.414368,638.663696 
	C409.005951,630.938293 394.030334,631.687195 378.841339,638.513123 
	C369.415314,642.749084 359.361542,643.187561 350.088470,639.975464 
	C338.696960,636.029602 328.100159,638.574280 317.267242,640.714233 
	C293.716339,645.366577 270.016083,648.606873 245.974701,647.437927 
	C231.459244,646.732178 217.160233,644.946838 206.018661,633.606323 
	C196.465881,623.882996 192.460449,612.170288 191.646866,598.982056 
	C190.588730,581.829346 196.214951,565.852051 200.343018,549.611694 
	C201.121490,546.549133 201.621658,543.382507 202.730362,540.445129 
	C204.363098,536.119446 202.230637,534.438416 198.618729,533.089661 
	C190.126129,529.918457 188.830643,527.132324 191.860016,518.477600 
	C203.908234,484.056366 216.902466,450.002472 232.478958,417.002075 
	C237.536133,406.287964 243.844772,396.272278 252.506897,387.499634 
M514.648987,542.154297 
	C515.635559,532.064758 517.098145,521.993896 517.493225,511.881256 
	C518.038208,497.929871 517.403137,483.939606 518.749573,470.001068 
	C519.565002,461.558899 520.714661,453.183868 523.523376,445.145325 
	C524.316956,442.874023 525.103821,439.920624 528.316833,440.289154 
	C531.657288,440.672272 532.751831,443.440186 533.168640,446.429657 
	C533.380005,447.945282 533.079956,449.394928 532.493286,450.818115 
	C531.594604,452.998291 531.397217,455.316040 531.187012,457.651031 
	C529.019958,481.715302 531.395508,505.893036 529.344971,529.968628 
	C528.923584,534.916748 530.602173,535.923035 535.759399,535.521301 
	C555.657715,533.971375 573.888367,525.521057 593.228882,521.664185 
	C595.427124,521.225769 597.111694,519.587952 596.567505,517.426514 
	C595.880127,514.696411 596.242432,511.887451 595.158386,509.173767 
	C591.523560,500.075043 588.427124,490.757294 584.670593,481.711945 
	C575.056946,458.562836 567.019348,434.704346 554.253723,412.953674 
	C548.009399,402.314240 540.402283,392.988190 528.599182,388.090393 
	C516.784851,383.188049 504.728333,378.854004 493.360809,372.912079 
	C492.635529,372.532959 491.805145,372.303741 490.996124,372.144867 
	C487.400391,371.438843 485.194733,372.333405 485.230957,376.608154 
	C485.301422,384.927643 486.184418,393.180878 487.002625,401.436615 
	C487.873169,410.220673 486.603668,415.868530 475.247345,413.857422 
	C464.123840,411.887512 464.049469,412.190887 467.314056,423.352386 
	C468.000153,425.698029 468.547821,428.008636 466.262939,429.716583 
	C463.608215,431.700989 460.963501,433.792755 458.039490,435.307068 
	C444.018280,442.568390 429.574890,448.911804 414.909454,454.763916 
	C411.328125,456.193054 408.947357,458.455841 408.991150,462.960754 
	C409.211548,485.604828 409.184662,508.251282 409.266785,530.896851 
	C409.294189,538.452820 410.539062,539.585632 417.871460,540.767883 
	C439.547424,544.262756 458.453644,552.202637 469.573730,572.905945 
	C472.402649,578.172852 477.450317,580.569580 483.585968,580.642822 
	C488.751801,580.704468 493.867462,580.562378 499.011536,579.924316 
	C506.406036,579.006958 508.070038,577.979309 509.615784,570.509827 
	C511.500824,561.400696 512.970642,552.205627 514.648987,542.154297 
M396.673645,534.578796 
	C396.441376,514.823669 396.309845,495.066742 395.947998,475.313995 
	C395.598572,456.236633 398.849823,461.338684 380.367706,452.395264 
	C367.050232,445.951019 353.397308,440.208252 340.875336,432.198517 
	C336.895630,429.652832 335.525330,426.517975 337.303925,422.072662 
	C337.858521,420.686462 338.187714,419.211151 338.720276,417.814880 
	C340.107788,414.177338 338.599060,412.788300 335.041901,413.074280 
	C332.559113,413.273895 330.073242,413.531982 327.615723,413.930481 
	C320.735840,415.046173 318.420990,413.349152 318.012543,406.285187 
	C317.811707,402.811523 318.040802,399.299438 318.270050,395.817535 
	C318.663116,389.846802 319.445007,383.892365 319.603302,377.918884 
	C319.700348,374.256653 316.449738,371.884521 313.260254,373.200470 
	C299.890930,378.716492 286.062927,383.295258 273.456085,390.412018 
	C268.105530,393.432465 262.832062,397.012329 258.552795,401.862854 
	C251.503036,409.853638 246.754410,419.138824 242.535904,428.706757 
	C237.714249,439.642700 233.765457,450.947845 228.591339,461.752899 
	C225.125168,468.991302 226.524002,472.394409 233.680023,476.333374 
	C237.327515,478.341156 240.968918,480.361267 244.578552,482.435852 
	C246.222519,483.380707 247.866211,483.982147 249.801254,483.542053 
	C254.844833,482.394989 256.841980,485.523712 257.775848,489.609741 
	C258.702515,493.664062 259.025970,497.815857 259.257812,501.991974 
	C259.782990,511.451080 261.494415,520.319397 273.086700,522.963989 
	C274.391998,520.984070 274.444336,518.623657 274.566650,516.371948 
	C275.189301,504.909119 274.810181,493.427826 275.516296,481.947174 
	C276.202454,470.790894 274.082977,459.722565 272.425079,448.700714 
	C271.857727,444.928925 272.402618,441.690918 276.273102,440.648926 
	C280.355438,439.549896 280.928833,443.414978 282.113098,446.045197 
	C282.587738,447.099335 282.922699,448.237427 283.168152,449.370483 
	C285.706329,461.087219 287.075714,472.968048 287.142334,484.931396 
	C287.261963,506.406006 287.359253,527.855591 291.463440,549.058594 
	C292.953522,556.756531 294.649017,564.343384 298.839417,571.138367 
	C300.556427,573.922546 302.447662,575.825073 306.123627,574.640076 
	C307.290802,574.263916 308.763885,574.549866 310.034027,574.824158 
	C323.719757,577.779968 335.575775,574.800903 346.952637,566.185364 
	C360.075043,556.247864 374.581757,548.301758 390.151245,542.524841 
	C393.390656,541.322937 396.821625,539.847229 396.673645,534.578796 
M393.435669,167.006546 
	C384.434479,173.669388 374.225800,178.347290 364.067383,183.508209 
	C365.969299,186.074646 367.770569,185.567947 369.341980,185.799606 
	C374.438568,186.550964 379.670929,186.945251 383.727448,190.698975 
	C385.531189,192.368103 386.716339,194.317947 385.651581,196.911163 
	C384.563782,199.560516 382.581238,200.817307 379.738495,200.431915 
	C378.276276,200.233688 376.726044,199.997330 375.434601,199.344742 
	C369.682953,196.438339 364.025513,196.154160 358.246155,199.268295 
	C356.802612,200.046127 355.148499,200.578018 353.528351,200.853027 
	C350.161621,201.424500 347.670929,199.072876 347.819641,195.676636 
	C347.874817,194.415634 349.121582,193.236557 347.895721,191.632965 
	C344.870850,191.423111 342.645508,193.768326 339.932129,194.712799 
	C330.532227,197.984726 324.762115,203.436340 327.613190,214.382828 
	C327.852386,215.301193 327.372498,216.387466 327.510803,217.355133 
	C327.923706,220.243912 326.839355,222.252243 324.175964,223.333710 
	C321.430084,224.448685 320.912415,221.860886 319.657074,220.491959 
	C316.884735,217.468796 313.852356,214.732849 309.346161,215.699799 
	C304.754059,216.685150 302.602295,220.098236 301.351410,224.392197 
	C299.173828,231.867416 300.448395,239.039917 303.753143,245.709244 
	C307.416321,253.101883 312.378937,259.032288 321.961273,258.976624 
	C327.884460,258.942200 331.313507,262.054535 332.580505,268.523376 
	C336.176636,286.884216 346.930359,300.876495 361.557159,311.943848 
	C373.545013,321.014435 386.583191,327.601685 402.221527,327.721039 
	C417.120453,327.834747 429.633759,321.944641 441.439392,313.614532 
	C456.837585,302.749451 467.948822,288.684845 472.361450,270.268585 
	C474.888031,259.723877 474.745026,260.783569 482.892822,260.100891 
	C496.438385,258.965942 510.172546,235.550552 503.769409,220.616058 
	C501.330383,214.927368 495.419342,212.894424 490.324036,216.357590 
	C488.279755,217.747055 486.569641,219.621353 484.660156,221.218430 
	C483.273956,222.377838 481.845428,224.003265 479.849823,223.040771 
	C478.021454,222.158966 477.737854,220.132935 477.670105,218.284775 
	C477.578613,215.790085 477.288361,213.215149 477.754639,210.804504 
	C478.987305,204.432144 476.036987,200.356689 471.594055,196.180832 
	C454.289490,179.916473 434.928436,165.612396 422.035675,145.053925 
	C420.455658,142.534515 418.477661,142.862946 416.835815,145.104095 
	C410.553101,153.680176 402.373077,160.219498 393.435669,167.006546 
M211.169540,562.338013 
	C207.987885,571.645203 205.832291,581.189453 204.482071,590.927979 
	C201.527908,612.235168 214.490906,630.166138 235.630569,633.676636 
	C244.479538,635.146179 253.418839,635.164185 262.400452,634.965088 
	C279.081757,634.595276 295.456268,632.184753 311.835938,629.228394 
	C322.517609,627.300415 333.057678,623.424744 344.255676,625.634766 
	C346.939331,626.164368 349.470551,624.977112 351.987122,624.049377 
	C359.320129,621.345947 365.009430,616.083557 371.310455,611.777039 
	C382.064880,604.426819 393.694977,601.355835 406.767487,603.481934 
	C413.652344,604.601746 419.426636,608.518738 426.082245,610.043457 
	C427.533295,610.375793 429.173676,611.182739 430.177124,609.577271 
	C431.354950,607.692932 429.847351,606.319214 428.507446,605.437256 
	C418.977570,599.164124 409.249146,593.562805 397.064240,595.149414 
	C393.293427,595.640442 389.409576,595.346191 385.580170,595.271973 
	C383.339813,595.228577 381.093628,594.816467 380.837311,591.945618 
	C380.615601,589.462036 381.995453,587.864807 384.180450,586.932007 
	C385.094818,586.541504 386.061096,586.231384 387.033478,586.024292 
	C402.450897,582.739746 416.759918,585.431335 429.975128,594.017029 
	C433.182922,596.101074 436.391144,598.188965 439.671844,600.153687 
	C440.830231,600.847534 442.372009,601.187317 443.306610,599.883423 
	C444.301270,598.495667 443.189209,597.399109 442.204712,596.458069 
	C436.863037,591.351868 430.826202,587.308960 424.110321,584.186157 
	C414.409790,579.675659 403.938324,580.497375 393.727692,579.592651 
	C391.079620,579.358032 388.407440,579.619019 388.235504,576.162659 
	C388.061523,572.664612 390.486908,570.910706 393.599854,570.817688 
	C400.575104,570.609253 407.545349,570.441467 414.543060,571.091858 
	C427.128998,572.261658 437.026184,578.695312 446.412109,586.385254 
	C448.102264,587.770020 449.703552,589.591492 452.113831,589.369080 
	C452.902283,587.909363 452.362091,587.064880 451.695740,586.293945 
	C442.907990,576.126526 432.251953,569.310181 418.696320,567.315430 
	C411.090576,566.196289 403.519684,565.540588 395.848572,566.259216 
	C393.723602,566.458252 391.776154,565.932190 390.977997,563.661987 
	C390.307770,561.755676 390.724884,559.860779 392.440399,558.786072 
	C393.799927,557.934387 395.481995,557.308105 397.073975,557.162415 
	C411.307434,555.860535 425.359772,556.160522 438.611359,562.535522 
	C441.519165,563.934326 444.433502,565.319580 448.565063,567.294373 
	C446.533966,563.856506 444.571564,562.322937 442.423187,561.227478 
	C426.382782,553.048096 409.672241,550.845398 392.128143,555.585449 
	C374.049194,560.469971 358.702850,570.722961 344.100983,581.621765 
	C334.212524,589.002441 323.831085,590.263550 312.653107,589.884277 
	C296.865417,589.348755 281.092010,588.320190 265.322998,587.334900 
	C257.523682,586.847595 249.734268,586.105591 241.968475,585.229675 
	C239.164993,584.913452 236.938370,583.300354 236.721664,580.099609 
	C236.496201,576.769409 238.868790,576.128906 241.476318,575.476501 
	C246.756897,574.155090 252.102158,574.761230 257.404358,574.781799 
	C261.782196,574.798706 264.084167,573.395813 264.951447,568.803894 
	C265.701996,564.830139 265.269836,560.816833 266.127747,556.903809 
	C267.047333,552.709473 264.720123,550.301819 261.123505,549.629089 
	C248.346756,547.239319 235.965118,543.401001 223.522980,539.788940 
	C219.207718,538.536133 216.695465,539.965881 215.618057,544.095459 
	C214.107712,549.884521 212.759125,555.715881 211.169540,562.338013 
M585.430359,627.998840 
	C599.559509,618.009705 602.629700,603.862671 600.394348,587.816284 
	C598.280029,572.638062 592.399048,558.360779 589.576721,543.342651 
	C588.879944,539.635071 586.364929,538.216675 582.928345,539.451782 
	C569.898560,544.134521 556.301025,546.527039 542.886597,549.662781 
	C539.244202,550.514221 537.162598,553.226746 537.640564,556.551636 
	C538.258728,560.851562 538.174072,565.161072 538.658142,569.448303 
	C539.206421,574.304260 541.670532,575.939270 546.337524,575.708618 
	C551.646240,575.446228 556.978210,575.650940 562.300110,575.661255 
	C565.273682,575.666992 568.482849,575.964478 568.655212,579.667847 
	C568.822144,583.252258 565.916565,584.597534 562.763123,585.327393 
	C558.679749,586.272461 554.487305,586.029358 550.387329,586.571594 
	C525.346191,589.883179 500.154846,591.461182 474.982788,593.247925 
	C471.787262,593.474792 469.283478,593.962219 467.600708,597.158081 
	C466.212341,599.794739 463.781250,601.573730 461.030670,603.060120 
	C454.086090,606.812866 449.601379,614.265747 441.414398,616.263550 
	C440.882568,616.393250 440.556030,617.251404 440.071014,617.703064 
	C436.039215,621.457397 431.593628,623.158447 425.944611,621.520508 
	C420.793030,620.026672 416.027130,617.663391 411.070892,615.743652 
	C395.893829,609.865173 383.494080,615.381348 371.014099,627.114075 
	C370.897552,627.223572 371.129578,627.703918 371.227081,628.136230 
	C371.649139,628.227966 372.172150,628.520508 372.564697,628.397339 
	C374.782654,627.701416 376.999146,626.981628 379.161804,626.131775 
	C393.311310,620.571106 407.600525,619.257507 421.833130,625.480591 
	C435.812653,631.593018 450.102905,633.938904 465.086029,630.319824 
	C472.985443,628.411804 480.910309,628.504456 488.795959,629.959717 
	C511.410065,634.133118 534.153137,636.467896 557.182800,635.638672 
	C566.972961,635.286133 576.278076,633.328735 585.430359,627.998840 
M329.425964,96.199753 
	C331.523834,102.687141 333.553101,109.197838 335.745361,115.653175 
	C337.058044,119.518539 339.664948,120.862282 343.554535,119.030098 
	C360.788849,110.911911 378.743622,106.443901 397.981964,106.433266 
	C420.376770,106.420876 442.102936,109.035042 462.363190,119.138260 
	C466.938293,121.419731 468.485077,119.754616 470.004028,115.763138 
	C473.446716,106.716820 475.579376,97.297737 478.207031,88.024971 
	C480.491089,79.964813 479.925690,78.713501 472.884583,74.010056 
	C451.433594,59.680931 427.398071,53.577366 401.986938,53.757652 
	C379.748230,53.915432 358.593445,59.356464 339.065033,70.654114 
	C324.983124,78.800835 324.294067,79.767731 329.425964,96.199753 
M439.512421,349.888306 
	C439.560852,346.392365 439.624146,342.896515 439.654907,339.400421 
	C439.738342,329.922180 438.593658,329.113159 430.155609,332.957703 
	C420.934875,337.158875 411.274109,339.599396 401.168457,338.985413 
	C391.681915,338.409058 382.480835,336.182709 373.742645,332.166992 
	C369.204834,330.081604 366.880127,331.672272 366.396820,336.682739 
	C366.013702,340.654755 365.610413,344.630402 365.421753,348.614166 
	C365.193817,353.426605 365.117798,358.168579 367.177399,362.811676 
	C374.850342,380.109192 384.147797,396.378326 396.732422,410.613983 
	C401.097626,415.551880 402.510925,415.557526 407.305786,411.231628 
	C408.046356,410.563477 408.733246,409.832397 409.412354,409.100159 
	C421.217529,396.370667 429.974670,381.733795 436.373230,365.661621 
	C438.279999,360.872131 439.821289,355.934753 439.512421,349.888306 
M466.654816,362.908325 
	C463.685791,359.972931 459.156097,360.497498 455.902191,358.002960 
	C454.474365,356.908356 453.068939,358.246429 452.399017,359.747009 
	C451.591553,361.555695 450.725189,363.375519 450.231201,365.280487 
	C447.232574,376.843597 441.549652,387.233704 435.669250,397.433624 
	C430.018799,407.234802 422.723511,415.938049 414.772156,424.002563 
	C411.064209,427.763336 409.855957,432.136108 410.310974,437.180145 
	C410.558868,439.928467 412.171295,441.244110 414.736053,440.340240 
	C426.984894,436.023590 438.440277,429.944580 449.960541,424.041718 
	C452.726074,422.624603 453.109833,420.340942 451.610992,417.287109 
	C449.349762,412.679993 447.598511,407.811005 445.809448,402.987000 
	C444.050140,398.243347 445.689911,396.459839 450.740051,397.334351 
	C456.461761,398.325104 462.173401,399.391907 467.918884,400.221771 
	C472.567780,400.893219 474.092896,399.479492 473.829376,394.852753 
	C473.489624,388.887756 473.726318,382.738129 472.271881,377.036041 
	C471.089111,372.399170 473.300995,366.220520 466.654816,362.908325 
M347.752014,368.415436 
	C346.768860,368.239868 345.756042,368.161652 344.807648,367.872223 
	C340.281525,366.490936 337.994385,367.960999 335.547211,372.365906 
	C331.185455,380.216949 332.659912,388.622345 331.471954,396.739136 
	C331.018707,399.836060 333.564545,400.262573 336.274261,400.046539 
	C342.436096,399.555389 348.428467,398.166656 354.485199,397.083374 
	C359.126495,396.253204 360.234009,397.747589 359.042114,402.284241 
	C357.599457,407.775330 355.460236,413.000519 352.954681,418.066254 
	C351.507690,420.991791 352.566803,422.892975 355.048279,424.274841 
	C365.960571,430.351837 377.113129,435.961151 388.592010,440.886047 
	C392.489441,442.558197 395.785339,440.039917 395.202515,435.913055 
	C394.467804,430.710266 392.443176,426.093475 388.716766,422.183228 
	C376.680817,409.553406 367.033386,395.202026 359.493744,379.532623 
	C357.000641,374.351257 353.602448,370.837738 347.752014,368.415436 
M523.594299,566.519165 
	C522.855957,569.231812 521.927429,571.911072 521.442566,574.668335 
	C521.088745,576.680054 522.096375,578.008484 524.371704,577.149658 
	C526.239990,576.444458 527.877930,574.716309 527.024841,572.969360 
	C525.911682,570.690063 529.109802,566.498901 523.594299,566.519165 
M278.366272,569.603455 
	C278.370239,570.423462 278.343994,571.244934 278.384613,572.063110 
	C278.461456,573.610046 278.784241,575.355713 280.603729,575.336975 
	C282.828247,575.314148 282.928955,573.354614 282.765137,571.670105 
	C282.516235,569.110291 282.162354,566.541016 280.008881,564.774719 
	C277.965302,565.806091 278.595306,567.462097 278.366272,569.603455 
z"/>
<path fill="#000000" opacity="1.000000" stroke="none" 
	d="
M711.622131,374.063873 
	C711.643372,358.084106 711.534912,342.591125 711.767883,327.103302 
	C711.841492,322.208374 709.837585,319.869171 705.162415,319.780457 
	C695.515869,319.597443 685.866821,319.533813 676.218506,319.455444 
	C664.493042,319.360199 659.680359,314.496033 659.662109,302.677155 
	C659.654907,298.012329 659.627014,293.347504 659.613647,288.682678 
	C659.601868,284.587677 657.424316,282.413300 653.461060,282.391968 
	C638.801453,282.312988 624.140625,282.315125 609.481262,282.421661 
	C605.772095,282.448639 604.261108,284.894897 604.264648,288.395264 
	C604.269836,293.559753 604.399658,298.726105 604.301880,303.888367 
	C604.085815,315.291687 598.891296,320.342896 587.576843,320.311157 
	C579.081177,320.287323 570.585571,320.258820 562.089905,320.234741 
	C555.311707,320.215485 553.373169,322.043243 553.355286,328.693237 
	C553.319031,342.188019 553.369873,355.683044 553.330261,369.177795 
	C553.312134,375.359070 552.315247,375.476959 546.557312,373.192108 
	C537.853149,369.738129 535.143555,363.592651 535.722717,354.776825 
	C536.570557,341.873596 534.181702,328.833191 537.432251,316.009521 
	C539.574280,307.559082 546.283081,301.896790 554.951782,301.758270 
	C563.279724,301.625153 571.611450,301.748016 579.940796,301.675751 
	C585.994873,301.623230 587.607361,299.956879 587.644836,293.912048 
	C587.669556,289.914703 587.627380,285.916992 587.611206,281.919434 
	C587.567566,271.109528 594.926636,263.650970 605.689087,263.644745 
	C622.515686,263.635010 639.352905,264.024902 656.165649,263.544250 
	C671.280334,263.112152 675.504639,272.557159 676.234802,283.025146 
	C676.466187,286.342224 676.290039,289.686920 676.322205,293.018768 
	C676.389404,299.984619 678.005371,301.655701 684.801514,301.652740 
	C693.297607,301.648987 701.793945,301.533478 710.289795,301.566132 
	C720.489258,301.605316 727.979309,308.762238 728.375488,318.961090 
	C730.082825,362.912201 729.019592,406.885071 729.316467,450.847473 
	C729.451477,470.838287 729.394958,490.830872 729.330383,510.822357 
	C729.298767,520.606140 722.746765,528.531982 713.006531,529.181274 
	C686.745728,530.931763 660.445984,530.641174 634.157349,529.456726 
	C628.587830,529.205811 624.751587,526.778137 622.948303,521.277527 
	C620.669434,514.326355 617.618347,507.576477 615.941650,500.493256 
	C614.004883,492.311707 609.132629,485.314575 607.366577,477.184753 
	C605.656555,469.312775 606.342590,461.297699 606.746216,453.335297 
	C606.887756,450.543365 608.996399,449.256012 611.418457,448.875732 
	C624.165466,446.874329 637.004761,447.277649 649.777649,448.242523 
	C655.608459,448.683014 657.286621,451.444244 657.338013,457.406555 
	C657.442871,469.560394 657.019531,481.722260 658.124939,493.858612 
	C658.484192,497.803314 657.332397,501.663483 657.855103,505.755005 
	C658.468567,510.557343 660.642273,512.022034 665.000549,511.979401 
	C676.156677,511.870300 687.314026,511.884308 698.470886,511.871246 
	C700.466492,511.868927 702.475098,511.848114 704.455505,512.051514 
	C709.984436,512.619507 712.275818,510.602539 712.636169,504.914673 
	C713.058228,498.252045 712.397461,491.603058 712.266235,484.960419 
	C711.539001,448.158386 711.818665,411.354828 711.622131,374.063873 
z"/>
<path fill="#000000" opacity="1.000000" stroke="none" 
	d="
M99.325974,412.185913 
	C99.324829,446.154694 99.322594,479.647522 99.327934,513.140381 
	C99.329216,521.167297 99.654640,522.005432 107.601639,522.174805 
	C126.415268,522.575623 145.239594,522.474365 164.059586,522.576172 
	C165.723877,522.585144 167.395050,522.499756 169.051163,522.620789 
	C174.200790,522.996948 176.920258,525.520264 177.318314,530.174255 
	C177.820526,536.046021 175.715027,539.654053 170.620880,540.772400 
	C167.894028,541.371033 165.002289,541.376221 162.184692,541.378967 
	C141.688782,541.398987 121.186081,541.031738 100.699837,541.464417 
	C91.176376,541.665588 80.314629,533.641846 80.463387,521.529419 
	C80.983116,479.210602 80.689163,436.881531 80.632736,394.556488 
	C80.629585,392.194855 81.823334,388.926514 79.097557,387.727692 
	C76.180870,386.444885 74.413704,389.500519 72.523636,391.239624 
	C69.589806,393.939117 66.956848,396.911621 62.710598,397.752625 
	C56.403610,399.001770 50.594734,393.251404 52.160435,386.995819 
	C52.901062,384.036682 54.485714,381.561127 56.816322,379.470367 
	C89.541489,350.113403 122.251587,320.739563 154.916122,291.315186 
	C167.039474,280.394440 179.107864,269.410339 191.064148,258.307404 
	C199.470490,250.501022 206.730087,249.808670 215.352631,257.146332 
	C233.238831,272.367249 249.882950,288.953827 267.145355,304.862305 
	C272.654083,309.938995 278.188110,314.988220 283.694580,320.067322 
	C288.874451,324.845184 289.907379,331.329407 286.175568,335.461029 
	C282.541595,339.484283 276.099915,339.575073 270.881073,334.987244 
	C259.876740,325.313446 249.098175,315.380951 238.300797,305.474152 
	C228.484192,296.467255 218.777847,287.340271 208.996185,278.295105 
	C205.804153,275.343414 202.520630,275.225922 199.217499,278.204681 
	C183.271133,292.584991 167.360199,307.005066 151.351639,321.315826 
	C135.583939,335.411285 119.780464,349.468628 103.832985,363.359375 
	C100.661797,366.121643 99.172653,368.983124 99.242233,373.221771 
	C99.452759,386.048218 99.324120,398.880188 99.325974,412.185913 
z"/>
<path fill="#000000" opacity="1.000000" stroke="none" 
	d="
M649.280823,318.669983 
	C658.639893,318.650269 662.118103,324.598907 657.909485,332.667389 
	C656.950562,334.505737 655.316895,335.174988 653.378784,335.229156 
	C651.049255,335.294250 648.711975,335.185883 646.388062,335.322693 
	C643.265137,335.506531 641.496582,337.194275 641.385071,340.397766 
	C641.327148,342.061249 641.364197,343.727905 641.345337,345.392975 
	C641.261108,352.816895 637.600220,355.474548 630.368958,353.487366 
	C627.229736,352.624695 625.447815,350.865601 625.591736,347.467834 
	C625.640991,346.304596 625.598328,345.137848 625.619080,343.973053 
	C625.759827,336.073395 625.000366,335.283783 617.291626,335.299957 
	C615.960022,335.302765 614.623047,335.334473 613.297607,335.233459 
	C607.929565,334.824127 605.614624,332.046509 605.702148,326.195007 
	C605.772034,321.524231 608.119263,319.208954 613.255920,318.749420 
	C613.587280,318.719788 613.921326,318.721863 614.253967,318.704987 
	C624.899902,318.165039 624.969116,318.169464 625.669495,307.452209 
	C625.942200,303.279510 627.968750,301.535950 632.058594,301.602264 
	C636.167603,301.668915 640.365906,301.383820 641.204834,306.910370 
	C641.403259,308.217407 641.325562,309.568756 641.344543,310.900146 
	C641.436768,317.362793 642.280090,318.240967 649.280823,318.669983 
z"/>
<path fill="#000000" opacity="1.000000" stroke="none" 
	d="
M597.348022,414.336670 
	C592.394348,414.240753 590.170593,411.812317 590.062805,407.455017 
	C589.890015,400.469727 589.786499,393.481598 589.761108,386.494293 
	C589.748901,383.132751 591.750671,380.975250 594.922913,380.841156 
	C601.896240,380.546326 608.889893,380.626862 615.873108,380.716583 
	C619.052979,380.757416 620.144348,383.111206 620.186340,385.820862 
	C620.307434,393.641266 620.330261,401.465332 620.233948,409.286011 
	C620.192139,412.684326 618.263428,414.383118 614.783142,414.352325 
	C609.124634,414.302277 603.465332,414.345337 597.348022,414.336670 
z"/>
<path fill="#000000" opacity="1.000000" stroke="none" 
	d="
M668.802368,379.580231 
	C674.025146,379.656921 675.761353,381.943665 675.464417,386.862457 
	C675.035034,393.976501 675.255859,401.136108 675.364990,408.273743 
	C675.420471,411.901276 673.786560,413.394409 670.273376,413.361572 
	C663.964966,413.302582 657.654175,413.272980 651.347107,413.385925 
	C647.479431,413.455170 645.862244,411.343628 645.793518,407.894226 
	C645.648071,400.591400 645.602905,393.283295 645.706726,385.980042 
	C645.767395,381.717621 648.326233,379.745697 652.464600,379.702972 
	C657.776733,379.648102 663.089233,379.629272 668.802368,379.580231 
z"/>
<path fill="#000000" opacity="1.000000" stroke="none" 
	d="
M403.009949,293.216919 
	C396.943695,292.698029 391.360870,292.101868 386.054749,289.979340 
	C383.978668,289.148895 382.294037,287.910431 380.983948,286.129913 
	C379.708099,284.395966 379.151123,282.519714 380.473541,280.614288 
	C381.658936,278.906281 383.386566,278.782684 385.357513,279.152405 
	C390.232391,280.066772 395.122559,280.932709 400.036346,281.598694 
	C406.599091,282.488129 412.807465,280.146820 419.160400,279.161621 
	C421.190247,278.846832 423.229370,278.305511 424.593811,280.286499 
	C426.043823,282.391785 425.001190,284.402313 423.855835,286.298889 
	C421.463837,290.259705 417.428650,291.368011 413.316589,292.113159 
	C410.070557,292.701416 406.750763,292.882935 403.009949,293.216919 
z"/>
<path fill="#000000" opacity="1.000000" stroke="none" 
	d="
M402.187958,255.586578 
	C403.980408,257.114838 405.517578,258.387238 407.120026,259.571289 
	C408.923981,260.904205 409.867340,262.543488 408.863831,264.721863 
	C407.923859,266.762421 406.560181,268.239227 403.988098,268.368652 
	C394.537292,268.844116 387.522369,260.434204 389.884888,251.362640 
	C391.223663,246.221848 392.521759,241.070389 393.818573,235.918793 
	C394.606628,232.788391 395.787506,230.141815 399.793701,230.757050 
	C403.628235,231.345932 404.281738,234.057358 404.374298,237.339661 
	C404.499390,241.775665 402.665161,245.787537 401.877319,250.021667 
	C401.543396,251.816483 400.749939,253.549026 402.187958,255.586578 
z"/>
<path fill="#000000" opacity="1.000000" stroke="none" 
	d="
M432.658264,186.287964 
	C440.791779,185.031555 448.271759,185.258041 454.858582,190.360657 
	C457.587128,192.474411 459.539276,194.865143 457.564423,198.389572 
	C455.595520,201.903381 452.372681,201.178375 449.705872,199.716873 
	C443.313293,196.213501 437.205078,196.147354 430.761078,199.625122 
	C427.343719,201.469421 423.334595,202.001022 421.355103,197.582062 
	C419.443909,193.315659 422.358124,190.694992 425.819885,188.891815 
	C427.860443,187.828903 430.124268,187.194595 432.658264,186.287964 
z"/>
<path fill="#000000" opacity="1.000000" stroke="none" 
	d="
M358.070618,218.903046 
	C360.021973,214.342514 361.830811,210.029007 367.697998,210.975311 
	C372.223846,211.705246 375.279816,216.375809 375.355042,222.381226 
	C375.396606,225.701477 375.488434,229.009857 374.275482,232.217972 
	C372.876221,235.918854 370.071991,237.968140 366.360992,238.034378 
	C362.753357,238.098755 360.215851,235.793106 358.799988,232.467056 
	C356.970947,228.170334 357.472565,223.696136 358.070618,218.903046 
z"/>
<path fill="#000000" opacity="1.000000" stroke="none" 
	d="
M430.689789,219.352249 
	C432.552063,214.528732 434.605377,210.226288 440.523285,210.900528 
	C444.706421,211.377121 448.083801,216.874680 448.335419,222.884827 
	C448.476715,226.260330 447.847260,229.518356 446.687836,232.611664 
	C445.519836,235.727875 443.238556,238.034622 439.725647,238.180466 
	C436.452576,238.316360 434.199341,236.425293 432.620056,233.596298 
	C430.166962,229.202072 429.545288,224.584473 430.689789,219.352249 
z"/>
<path fill="#000000" opacity="1.000000" stroke="none" 
	d="
M308.549255,226.640152 
	C309.804718,225.828171 310.892609,225.824417 311.663055,226.480408 
	C316.721802,230.787674 320.321350,236.023102 321.282349,242.738708 
	C321.513306,244.352402 321.473785,246.187836 319.648560,247.090210 
	C317.637268,248.084518 316.152893,246.981247 314.833221,245.593857 
	C311.602448,242.197327 308.931183,238.489670 307.475037,233.921951 
	C306.653473,231.344711 306.558136,229.077637 308.549255,226.640152 
z"/>
<path fill="#000000" opacity="1.000000" stroke="none" 
	d="
M487.292053,234.512589 
	C489.090912,231.314697 490.260315,228.137238 492.906128,225.988052 
	C494.081451,225.033371 495.527283,224.361298 497.052002,225.052795 
	C498.723511,225.810883 498.570618,227.383957 498.452545,228.913300 
	C497.984924,234.971725 494.882660,239.802307 491.271973,244.389374 
	C490.053436,245.937424 488.390564,246.840103 486.481628,246.042923 
	C484.409912,245.177750 484.382782,243.055664 484.770874,241.324005 
	C485.268311,239.104233 486.311859,237.006821 487.292053,234.512589 
z"/>
<path fill="#000000" opacity="1.000000" stroke="none" 
	d="
M395.531921,72.317116 
	C396.007904,69.569389 394.566864,66.170876 397.451935,65.194519 
	C401.171844,63.935650 405.341034,63.513935 409.152832,65.247421 
	C411.215424,66.185432 411.236450,68.428658 411.351288,70.477203 
	C411.684753,76.425514 412.853119,77.858101 418.415009,77.555450 
	C422.563538,77.329704 424.792206,78.351753 424.730499,82.839256 
	C424.610718,91.548195 423.972351,92.635368 417.844971,92.372093 
	C413.471527,92.184174 411.334045,93.787483 411.297394,98.356102 
	C411.263458,102.591583 407.758453,104.967735 401.727173,104.591026 
	C398.180145,104.369492 395.614258,102.772781 395.545441,98.340141 
	C395.457458,92.672134 394.080658,91.721176 388.557098,92.105423 
	C383.021790,92.490486 381.266388,90.347771 380.936493,82.582901 
	C380.742767,78.023689 383.279572,76.414101 387.534912,76.601357 
	C390.829498,76.746346 394.470398,77.363113 395.531921,72.317116 
z"/>
</svg>